<svg version="1.2" xmlns="http://www.w3.org/2000/svg" viewBox="0 0 1080 410" width="1080" height="410">
	<title>dos-duendes-logo-azul-svg</title>
	<style>
		.s0 { fill: #262b39 } 
	</style>
	<path id="Layer" fill-rule="evenodd" class="s0" d="m42.5 208.1q12.3 0.1 18.3 2.7 1.2 0.5 2.4 1.1 1.2 0.6 2.4 1.4 1.1 0.7 2.1 1.6 1.1 0.9 2 1.9 0.9 0.9 1.7 1.8 0.9 1 1.6 2.1 0.8 1 1.4 2.1 0.6 1.1 1.2 2.3 2.4 5.1 2.5 13.3 0 1.5-0.1 3-0.1 1.4-0.3 2.9-0.2 1.5-0.6 2.9-0.3 1.5-0.8 2.9-0.5 1.4-1.2 2.7-0.6 1.3-1.4 2.5-0.8 1.2-1.7 2.4-1 1.1-2 2.1-1.2 1.2-2.6 2.2-1.4 1-2.9 1.8-1.5 0.9-3.1 1.5-1.5 0.6-3.2 0.9-2.2 0.5-4.3 0.8-2.2 0.4-4.4 0.6-2.2 0.2-4.4 0.3-2.2 0.1-4.4 0h-25.7v-2.7q4 0 6-1.8 2-1.8 2-5.6v-39.5q0-3.8-2-5.6c-1.4-1.1-3.3-1.7-6-1.7v-2.9zm-0.3 3.4q-0.7 0-1.5 0.1-0.8 0-1.5 0.1-0.8 0.1-1.5 0.3-0.8 0.2-1.5 0.5-0.4 0.1-0.8 0.3-0.3 0.1-0.7 0.3-0.3 0.3-0.7 0.5-0.3 0.2-0.6 0.5-0.2 0.2-0.4 0.5-0.2 0.3-0.4 0.6-0.2 0.2-0.3 0.6-0.1 0.3-0.2 0.6 0 0.4-0.1 0.8 0 0.5-0.1 0.9 0 0.4 0 0.9 0 0.4 0 0.9v37.7q0 0.8 0.1 1.5 0.2 0.8 0.5 1.5 0.3 0.7 0.8 1.2 0.4 0.6 1.1 1.1 0.7 0.5 1.5 0.9 0.8 0.3 1.6 0.5 0.9 0.3 1.7 0.4 0.9 0.1 1.8 0 1.5 0 3.1-0.1 1.5-0.1 3-0.4 1.6-0.3 3.1-0.7 1.5-0.4 2.9-1 1.1-0.4 2.2-0.9 1.1-0.6 2.2-1.2 1-0.7 1.9-1.4 1-0.8 1.9-1.7 0.8-0.7 1.5-1.6 0.7-0.9 1.3-1.9 0.6-0.9 1.1-1.9 0.5-1 0.9-2.1 0.5-1.4 0.9-2.8 0.3-1.4 0.5-2.8 0.3-1.4 0.4-2.9 0-1.4 0-2.9 0-11.3-6.2-19-6.2-7.6-19.5-7.9z"/>
	<path id="Layer" fill-rule="evenodd" class="s0" d="m160.8 206.8q14.5 0.3 22.7 9.3 8.2 8.9 8.3 21.9-0.1 13.1-8.3 22-8.1 8.9-22.7 9.3-14.3-0.4-22.5-9.3-8.3-8.9-8.5-22 0-3 0.5-5.9 0.5-3 1.6-5.7 1.1-2.8 2.6-5.4 1.6-2.5 3.6-4.7 8.1-9.1 22.7-9.5zm0 4.4q-10.6 0.3-15.7 8-5.1 7.7-5.1 19 0 11.5 5.2 19 5.3 7.5 15.6 7.8 10.6-0.3 15.7-7.8 5.1-7.5 5.1-19 0-11.5-5-19.1-5-7.6-15.8-7.9z"/>
	<path id="Layer" class="s0" d="m288.9 224.8q-0.9-1.5-1.8-2.9-1-1.3-2.2-2.6-1.1-1.3-2.4-2.4-1.3-1.1-2.7-2.1-1.3-0.9-2.7-1.6-1.4-0.7-2.9-1.2-1.6-0.5-3.1-0.8-1.6-0.3-3.2-0.3-1.2 0-2.4 0.1-1.2 0.2-2.4 0.5-1.2 0.3-2.3 0.8-1.1 0.5-2.1 1.2-0.9 0.5-1.6 1.3-0.7 0.8-1.2 1.7-0.5 0.9-0.8 1.9-0.2 1-0.2 2.1 0.3 5.7 6.3 8 1.7 0.6 3.5 1.1 1.7 0.6 3.5 1 1.7 0.5 3.5 0.9 1.8 0.4 3.6 0.7 1.8 0.3 3.7 0.8 1.8 0.5 3.6 1.1 1.8 0.7 3.5 1.5 1.7 0.8 3.4 1.7 6.1 3.6 6.5 12.1-0.3 9.2-7.2 14.3-6.9 5.2-16.9 5.3-1.3 0-2.7-0.1-1.4-0.1-2.8-0.4-1.3-0.2-2.7-0.5-1.3-0.3-2.6-0.7-1-0.4-1.9-0.7-1-0.4-1.9-0.9-0.9-0.4-1.8-0.9-0.9-0.5-1.7-1.1l-1.9 4.3h-2.9l-5.6-20.4 3.2-1q0.9 1.9 2 3.7 1 1.8 2.3 3.4 1.3 1.7 2.8 3.1 1.4 1.5 3.1 2.8 1.6 1.2 3.4 2.2 1.8 1 3.7 1.7 2 0.6 4 1 2 0.3 4.1 0.3 7.6-0.3 11.5-4.2 3.9-4 4-8.5 0-0.4 0-0.9-0.1-0.4-0.1-0.8-0.1-0.5-0.2-0.9-0.1-0.4-0.2-0.8-0.1-0.4-0.3-0.8-0.1-0.4-0.4-0.7-0.2-0.4-0.4-0.7-0.3-0.3-0.5-0.6-3.4-3-9.7-4.6-6.4-1.5-13.2-3.2-1.5-0.3-3-0.8-1.5-0.5-3-1.2-1.4-0.6-2.8-1.4-1.4-0.8-2.7-1.7-4.7-3.5-4.8-10.3 0-1.6 0.4-3.2 0.4-1.6 1.1-3.1 0.8-1.4 1.8-2.7 1.1-1.3 2.4-2.3 5.6-4.5 14.5-4.6 1.2 0 2.3 0 1.1 0.1 2.2 0.3 1.1 0.2 2.2 0.4 1.1 0.3 2.2 0.6 0.9 0.3 1.8 0.7 0.9 0.3 1.7 0.7 0.9 0.4 1.8 0.8 0.8 0.4 1.7 0.9l1.4-3.1h2.8l5.3 15.8z"/>
	<path id="Layer" fill-rule="evenodd" class="s0" d="m372.6 208.1q12.3 0.1 18.2 2.7 1.3 0.5 2.5 1.1 1.2 0.6 2.3 1.4 1.2 0.7 2.2 1.6 1 0.9 2 1.9 0.9 0.9 1.7 1.8 0.9 1 1.6 2.1 0.8 1 1.4 2.1 0.6 1.1 1.2 2.3 2.4 5.1 2.5 13.3 0 1.5-0.1 3-0.1 1.4-0.3 2.9-0.2 1.5-0.6 2.9-0.4 1.5-0.8 2.9-0.5 1.4-1.2 2.7-0.6 1.3-1.4 2.5-0.8 1.2-1.7 2.4-0.9 1.1-2 2.1-1.2 1.2-2.6 2.2-1.3 1-2.8 1.9-1.5 0.8-3.1 1.4-1.6 0.6-3.3 0.9-2.1 0.5-4.3 0.9-2.2 0.3-4.4 0.5-2.1 0.2-4.3 0.3-2.2 0.1-4.4 0h-25.8v-2.7q4 0 6-1.8 2-1.8 1.9-5.6v-39.5q0.1-3.8-2-5.6-1.9-1.7-6-1.7v-2.9zm-0.2 3.4q-0.8 0-1.6 0.1-0.7 0-1.5 0.1-0.7 0.1-1.5 0.3-0.7 0.2-1.5 0.5-0.4 0.1-0.7 0.3-0.4 0.1-0.7 0.4-0.4 0.2-0.7 0.4-0.3 0.2-0.6 0.5-0.3 0.2-0.5 0.5-0.2 0.3-0.3 0.6-0.2 0.3-0.3 0.6-0.1 0.3-0.2 0.6-0.1 0.4-0.1 0.9-0.1 0.4-0.1 0.8-0.1 0.5-0.1 0.9 0 0.4 0 0.9v37.7q0 0.8 0.2 1.5 0.1 0.8 0.4 1.5 0.3 0.7 0.8 1.3 0.5 0.6 1.1 1 0.7 0.5 1.5 0.9 0.8 0.3 1.7 0.6 0.8 0.2 1.7 0.3 0.8 0.1 1.7 0 1.6 0 3.1-0.1 1.6-0.1 3.1-0.4 1.5-0.3 3-0.7 1.5-0.4 2.9-1 1.2-0.4 2.3-0.9 1.1-0.6 2.1-1.2 1-0.7 2-1.4 0.9-0.8 1.8-1.6 0.8-0.8 1.5-1.7 0.7-0.9 1.3-1.8 0.7-1 1.2-2 0.5-1 0.9-2.1 0.4-1.3 0.8-2.8 0.4-1.4 0.6-2.8 0.2-1.4 0.3-2.9 0.1-1.4 0.1-2.9 0-11.3-6.2-19-6.2-7.6-19.5-7.9z"/>
	<path id="Layer" class="s0" d="m483 211c-2.7 0-4.6 0.6-5.9 1.8q-2 1.9-2 6v31q0 0.9 0 1.7 0.1 0.9 0.2 1.7 0.1 0.9 0.2 1.7 0.2 0.9 0.4 1.7 0.2 0.6 0.4 1.2 0.2 0.6 0.5 1.2 0.4 0.5 0.7 1.1 0.4 0.5 0.9 0.9 0.5 0.5 1.1 1 0.6 0.4 1.3 0.7 0.6 0.4 1.3 0.7 0.7 0.3 1.4 0.5 1 0.3 1.9 0.5 1 0.2 1.9 0.4 1 0.1 1.9 0.2 1 0.1 2 0.1 8.8 0 12.8-3.6 4-3.6 3.9-10.3v-33q0-3.7-2-5.5-2-1.7-5.8-1.7v-2.9h20.8v2.9c-2.6 0-4.6 0.6-5.9 1.8q-2 1.9-2 6.1v33.5q0.1 1.6-0.2 3.2-0.3 1.6-0.9 3.1-0.6 1.6-1.6 2.9-0.9 1.4-2.1 2.5-5 4.9-18.3 5.2-10.6 0-16.8-4.2-6.3-4.2-6.4-12.3v-34.7q0-3.8-2-5.5-0.7-0.4-1.4-0.8-0.7-0.3-1.4-0.5-0.8-0.2-1.5-0.3-0.8-0.1-1.6 0v-2.9h24.2z"/>
	<path id="Layer" class="s0" d="m620.9 208.1l5.8 15.4-2.7 1.3q-1.2-1.5-2.6-3-1.4-1.4-2.9-2.6-1.6-1.3-3.2-2.3-1.7-1.1-3.5-2-1.7-0.8-3.6-1.4-1.8-0.6-3.8-1-1.9-0.4-3.8-0.5-2-0.2-3.9-0.1-5.2 0-7.2 2.1-2 2.1-1.9 6.3v13.6h5.2q6.7 0.1 9.1-2.2 2.4-2.3 3-8.7h2.9v26h-3q-0.4-5.4-2.5-8.1-2.1-2.8-7.6-2.8h-7.1v17.7q-0.1 4.7 2.3 6.6 2.4 1.9 8.2 1.9 10.2-0.1 16.8-4.4 1.7-1.3 3.4-2.6 1.7-1.4 3.3-2.8 1.6-1.5 3-3.1 1.5-1.6 2.8-3.3l2.3 1-7.6 18.8h-51.3v-2.7q4.8-0.6 6.4-2.5 0.4-0.6 0.8-1.2 0.3-0.7 0.5-1.3 0.2-0.7 0.2-1.4 0.1-0.7 0-1.4v-39c0-2.7-0.7-4.6-2.1-5.7q-0.6-0.5-1.3-0.8-0.7-0.3-1.4-0.6-0.8-0.2-1.6-0.2-0.7-0.1-1.5 0v-2.9z"/>
	<path id="Layer" class="s0" d="m679.9 208.1h19.2l28.3 47.9v-37.1q0-0.8 0-1.5-0.1-0.8-0.3-1.5-0.2-0.8-0.6-1.5-0.3-0.7-0.8-1.3-1.7-2.1-6.2-2.1v-2.9h21v2.9q-3.9 0-5.9 1.8-2 1.7-2 6v49.1h-7.8l-31.8-51.9v39.9c0 3.6 0.6 6 1.8 7.3q1.9 1.9 6.1 2.1v2.6h-21v-2.7q0.8 0.1 1.6 0 0.8-0.1 1.5-0.3 0.8-0.2 1.5-0.6 0.7-0.4 1.3-0.8 2-1.8 2-6v-39.3q0-3.8-2-5.5-0.6-0.5-1.3-0.8-0.7-0.4-1.5-0.6-0.7-0.2-1.5-0.3-0.8-0.1-1.6 0z"/>
	<path id="Layer" fill-rule="evenodd" class="s0" d="m817.8 208.1q12.3 0.1 18.3 2.7 1.2 0.5 2.4 1.1 1.2 0.6 2.4 1.4 1.1 0.7 2.1 1.6 1.1 0.9 2 1.9 0.9 0.9 1.8 1.8 0.8 1 1.5 2.1 0.8 1 1.4 2.1 0.7 1.1 1.2 2.3 2.4 5.1 2.5 13.3 0 1.5-0.1 3-0.1 1.4-0.3 2.9-0.2 1.5-0.6 2.9-0.3 1.5-0.8 2.9-0.5 1.4-1.2 2.7-0.6 1.3-1.4 2.5-0.8 1.2-1.7 2.4-0.9 1.1-2 2.1-1.2 1.2-2.5 2.2-1.4 1-2.9 1.9-1.5 0.8-3.1 1.4-1.6 0.6-3.3 1-2.1 0.4-4.3 0.8-2.2 0.3-4.3 0.5-2.2 0.2-4.4 0.3-2.2 0.1-4.4 0h-25.8v-2.7q4 0 6-1.8 2-1.8 2-5.6v-39.5q0-3.8-2-5.6-1.9-1.7-6-1.7v-2.9zm-0.2 3.4q-0.8 0-1.6 0.1-0.8 0-1.5 0.1-0.8 0.2-1.5 0.3-0.8 0.2-1.5 0.5-0.4 0.1-0.8 0.3-0.3 0.1-0.7 0.4-0.3 0.2-0.6 0.4-0.4 0.2-0.6 0.5-0.3 0.2-0.5 0.5-0.2 0.3-0.4 0.6-0.1 0.3-0.3 0.6-0.1 0.3-0.1 0.6-0.1 0.4-0.2 0.9 0 0.4-0.1 0.8 0 0.5 0 0.9 0 0.4 0 0.9v37.7q0 0.8 0.1 1.5 0.2 0.8 0.5 1.5 0.3 0.7 0.8 1.3 0.5 0.6 1.1 1 0.7 0.5 1.5 0.9 0.8 0.3 1.6 0.6 0.9 0.2 1.7 0.3 0.9 0.1 1.8 0 1.5 0 3.1-0.1 1.5-0.1 3.1-0.4 1.5-0.3 3-0.7 1.5-0.4 2.9-1 1.2-0.4 2.2-0.9 1.1-0.6 2.2-1.2 1-0.7 1.9-1.4 1-0.8 1.9-1.6 0.8-0.8 1.5-1.7 0.7-0.9 1.3-1.8 0.6-1 1.1-2 0.5-1 0.9-2.1 0.5-1.3 0.9-2.8 0.3-1.4 0.5-2.8 0.3-1.4 0.4-2.9 0.1-1.4 0-2.9 0-11.3-6.2-19-6.2-7.6-19.4-7.9z"/>
	<path id="Layer" class="s0" d="m954.3 208.1l5.8 15.4-2.7 1.3q-1.2-1.5-2.6-3-1.4-1.4-2.9-2.6-1.6-1.3-3.2-2.3-1.7-1.1-3.4-2-1.8-0.8-3.7-1.4-1.8-0.6-3.7-1-2-0.4-3.9-0.5-1.9-0.2-3.9-0.1-5.2 0-7.2 2.1c-1.3 1.4-2 3.5-1.8 6.3v13.6h5.1q6.7 0.1 9.1-2.2 2.4-2.3 3-8.7h2.9v26h-3q-0.3-5.4-2.4-8.1-2.1-2.8-7.6-2.8h-7.1v17.7q-0.1 4.7 2.2 6.6 2.4 1.9 8.3 1.9 10.1-0.1 16.7-4.4 1.8-1.3 3.4-2.6 1.7-1.4 3.3-2.8 1.6-1.5 3-3.1 1.5-1.6 2.8-3.3l2.4 1-7.7 18.8h-51.3v-2.7q4.8-0.6 6.4-2.5 0.5-0.6 0.8-1.2 0.3-0.7 0.5-1.3 0.2-0.7 0.2-1.4 0.1-0.7 0-1.4v-39c0-2.7-0.7-4.6-2.1-5.7q-0.6-0.5-1.3-0.8-0.7-0.3-1.4-0.6-0.8-0.2-1.6-0.2-0.7-0.1-1.5 0v-2.9z"/>
	<path id="Layer" class="s0" d="m1059.5 224.8q-0.8-1.5-1.8-2.9-1-1.3-2.2-2.6-1.1-1.3-2.4-2.4-1.3-1.1-2.7-2.1-1.3-0.9-2.7-1.6-1.4-0.8-2.9-1.2-1.5-0.5-3.1-0.8-1.6-0.3-3.2-0.3-1.2 0-2.4 0.1-1.2 0.2-2.4 0.5-1.2 0.3-2.3 0.8-1.1 0.5-2.1 1.2-0.9 0.5-1.6 1.3-0.7 0.8-1.2 1.7-0.5 0.9-0.7 1.9-0.3 1-0.3 2.1 0.3 5.7 6.3 8 1.7 0.6 3.5 1.1 1.7 0.6 3.5 1 1.7 0.5 3.5 0.9 1.8 0.4 3.6 0.7 1.9 0.3 3.7 0.8 1.8 0.5 3.6 1.1 1.8 0.7 3.5 1.5 1.7 0.8 3.4 1.7 6.1 3.6 6.5 12.1-0.3 9.2-7.2 14.3-6.9 5.2-16.9 5.3-1.3 0-2.7-0.1-1.4-0.1-2.7-0.4-1.4-0.2-2.7-0.5-1.4-0.3-2.7-0.7-1-0.4-1.9-0.7-1-0.4-1.9-0.9-0.9-0.4-1.8-0.9-0.9-0.5-1.7-1.1l-1.9 4.3h-2.9l-5.7-20.4 3.3-1q0.9 1.9 1.9 3.7 1.1 1.8 2.4 3.4 1.3 1.7 2.7 3.1 1.5 1.5 3.1 2.8 1.7 1.3 3.5 2.2 1.8 1 3.7 1.7 2 0.7 4 1 2.1 0.3 4.1 0.3 7.6-0.2 11.5-4.2 4-4 4-8.5 0-0.4 0-0.8 0-0.5-0.1-0.9-0.1-0.4-0.2-0.9 0-0.4-0.2-0.8-0.1-0.4-0.3-0.8-0.1-0.3-0.3-0.7-0.2-0.3-0.5-0.7-0.2-0.3-0.5-0.6-3.3-3-9.7-4.6-6.4-1.5-13.1-3.2-1.6-0.3-3.1-0.8-1.5-0.5-2.9-1.1-1.5-0.7-2.9-1.5-1.3-0.8-2.6-1.7-4.8-3.4-4.9-10.2 0-1.7 0.4-3.3 0.4-1.6 1.1-3.1 0.8-1.4 1.8-2.7 1.1-1.3 2.4-2.3 5.6-4.5 14.6-4.6 1.1 0 2.2 0.1 1.1 0 2.2 0.2 1.1 0.2 2.2 0.4 1.1 0.3 2.2 0.6 0.9 0.3 1.8 0.7 0.9 0.3 1.8 0.7 0.8 0.4 1.7 0.8 0.8 0.4 1.7 0.9l1.4-3.1h2.9l5.3 15.8z"/>
	<path id="Layer" class="s0" d="m218.6 320.5q-0.4-1-0.9-2-0.5-0.9-1-1.8-0.6-0.9-1.2-1.7-0.7-0.9-1.4-1.7-0.7-0.7-1.5-1.3-0.8-0.7-1.8-1.1-0.9-0.4-1.9-0.6-1-0.3-2-0.3-1.3 0-2.4 0.3-1.2 0.3-2.3 0.9-1.1 0.6-1.9 1.4-0.9 0.8-1.5 1.9-0.7 1.1-1.3 2.4-0.5 1.3-0.8 2.6-0.3 1.3-0.5 2.6-0.1 1.4-0.1 2.7 0 6.7 3 10.6 0.7 0.9 1.6 1.7 0.9 0.7 2 1.2 1 0.5 2.2 0.8 1.2 0.2 2.3 0.2 1 0 1.9-0.2 1-0.1 1.9-0.4 0.9-0.3 1.8-0.7 0.9-0.4 1.7-1 0.7-0.4 1.4-1 0.6-0.6 1.2-1.2 0.6-0.7 1.1-1.4 0.6-0.7 1-1.4l1.8 1.2q-0.6 1-1.3 2-0.7 0.9-1.6 1.7-0.8 0.8-1.8 1.5-0.9 0.7-2 1.2-0.9 0.5-1.8 0.8-0.9 0.3-1.9 0.5-0.9 0.2-1.9 0.3-1 0.1-1.9 0.1-1.6 0-3.1-0.3-1.5-0.3-2.9-0.8-1.4-0.6-2.7-1.4-1.3-0.9-2.4-1.9-4.8-4.4-5-12.2-0.1-1.6 0.2-3.2 0.2-1.6 0.8-3.1 0.6-1.6 1.4-3 0.9-1.3 2-2.6 1.1-1.1 2.4-2 1.3-0.9 2.8-1.5 1.5-0.7 3.1-0.9 1.5-0.3 3.1-0.3 0.7 0 1.4 0 0.7 0.1 1.3 0.2 0.7 0.2 1.3 0.3 0.7 0.2 1.3 0.5 0.5 0.2 0.9 0.4 0.5 0.3 0.9 0.5 0.5 0.3 0.9 0.5 0.5 0.3 0.9 0.6l1-2.4h1.4l2.3 11.5z"/>
	<path id="Layer" fill-rule="evenodd" class="s0" d="m315.1 308.7h4.3l9.9 26.8q0.1 0.3 0.3 0.7 0.2 0.3 0.3 0.6 0.2 0.4 0.5 0.6 0.2 0.3 0.5 0.6 0.3 0.2 0.6 0.4 0.4 0.2 0.7 0.4 0.4 0.1 0.8 0.2 0.3 0.1 0.7 0.2v1.4h-12.6v-1.4q0.4 0 0.8 0 0.4 0 0.8-0.1 0.3-0.1 0.7-0.2 0.4-0.1 0.7-0.3 0.2-0.1 0.3-0.3 0.1-0.2 0.2-0.3 0.1-0.2 0.1-0.4 0-0.2 0-0.4-0.1-0.6-0.2-1.1-0.1-0.5-0.2-1-0.2-0.5-0.3-1-0.2-0.5-0.4-0.9-1-2.6-1.5-4.4h-11.8q-0.6 1.9-1.4 4.1-0.2 0.4-0.3 0.9-0.2 0.4-0.3 0.8-0.1 0.4-0.2 0.9-0.1 0.4-0.1 0.8 0 0.3 0 0.6 0.1 0.3 0.2 0.5 0.1 0.2 0.3 0.5 0.1 0.2 0.4 0.3 0.3 0.2 0.7 0.4 0.3 0.2 0.7 0.3 0.4 0.1 0.8 0.2 0.4 0.1 0.8 0.1v1.3h-11.8v-1.4q0.4 0 0.7-0.1 0.3 0 0.6-0.2 0.4-0.1 0.7-0.3 0.3-0.1 0.5-0.4 0.3-0.2 0.6-0.4 0.3-0.3 0.5-0.6 0.2-0.2 0.4-0.6 0.2-0.3 0.4-0.6zm1.1 4l-5.1 14h10.2z"/>
	<path id="Layer" class="s0" d="m426.6 310.3q-0.4-0.1-0.9 0-0.4 0-0.8 0.2-0.5 0.1-0.9 0.3-0.3 0.3-0.7 0.6-0.2 0.3-0.4 0.6-0.2 0.4-0.3 0.8-0.1 0.4-0.2 0.8 0 0.4 0 0.8v20.6q0 0.4 0 0.8 0.1 0.4 0.2 0.8 0.1 0.4 0.3 0.7 0.2 0.4 0.5 0.7 0.3 0.2 0.7 0.4 0.3 0.2 0.7 0.3 0.4 0.1 0.7 0.1 0.4 0 0.8 0 1.1 0 2.2-0.2 1.1-0.2 2.2-0.6 1-0.3 2-0.9 1-0.5 1.8-1.2 0.8-0.7 1.5-1.4 0.8-0.7 1.5-1.4 0.6-0.8 1.3-1.6 0.6-0.8 1.2-1.6l1.3 0.5-3.7 10.2h-24.2v-1.5q0.4 0.1 0.8 0 0.5 0 0.9-0.1 0.4-0.2 0.7-0.4 0.4-0.2 0.7-0.4 0.3-0.3 0.6-0.7 0.2-0.4 0.3-0.8 0.2-0.4 0.2-0.9 0.1-0.4 0-0.9v-20.5q0-2.4-1-3.2-0.4-0.2-0.8-0.4-0.3-0.2-0.7-0.3-0.4-0.2-0.9-0.2-0.4-0.1-0.8-0.1v-1.5h13.2z"/>
	<path id="Layer" class="s0" d="m544.5 311.3q-0.4-0.1-0.8-0.2-0.4-0.1-0.8-0.1-0.4-0.1-0.8-0.1-0.4 0-0.8-0.1-1.7-0.1-2.8-0.1-0.9-0.1-1.9 0-1 0.1-1.9 0.4-1 0.2-1.9 0.6-0.9 0.4-1.8 0.9-0.7 0.5-1.4 1.1-0.7 0.6-1.4 1.2-0.7 0.7-1.3 1.4-0.5 0.7-1.1 1.5l-1.4-0.6 3.1-8.5h23.1l0.4 1.9-21.2 27.6 2.6 0.3q2.4 0.2 4.7 0.3 1.1 0 2.2-0.1 1.2-0.1 2.2-0.4 1.1-0.2 2.2-0.6 1-0.4 2-0.9 0.9-0.6 1.7-1.2 0.9-0.7 1.6-1.5 0.7-0.8 1.3-1.6 0.6-0.9 1.1-1.9l1.5 0.5-3.2 9.5h-25.4l-1-1.6z"/>
	<path id="Layer" fill-rule="evenodd" class="s0" d="m647 308.7h4.3l9.9 26.8q0.1 0.3 0.3 0.7 0.1 0.3 0.3 0.7 0.2 0.3 0.5 0.6 0.2 0.3 0.5 0.5 0.3 0.3 0.6 0.5 0.3 0.2 0.7 0.3 0.4 0.2 0.7 0.3 0.4 0.1 0.8 0.1v1.4h-12.6v-1.4q0.4 0 0.8 0 0.4 0 0.7-0.1 0.4 0 0.8-0.2 0.4-0.1 0.7-0.3 0.2-0.1 0.3-0.3 0.1-0.1 0.2-0.3 0-0.2 0.1-0.4 0-0.2 0-0.4-0.1-0.5-0.2-1-0.1-0.5-0.2-1-0.2-0.5-0.4-1-0.1-0.5-0.3-1-1-2.5-1.5-4.3h-11.8q-0.6 1.9-1.4 4.1-0.2 0.4-0.3 0.8-0.2 0.4-0.3 0.8-0.1 0.5-0.2 0.9 0 0.4-0.1 0.9 0 0.3 0 0.5 0.1 0.3 0.2 0.5 0.1 0.3 0.3 0.5 0.2 0.2 0.4 0.4 0.3 0.2 0.7 0.4 0.3 0.1 0.7 0.2 0.4 0.2 0.8 0.3 0.4 0 0.8 0.1v1.3h-11.8v-1.4q0.3 0 0.7-0.1 0.3-0.1 0.6-0.2 0.3-0.2 0.6-0.3 0.3-0.2 0.6-0.4 0.3-0.2 0.6-0.5 0.3-0.2 0.5-0.5 0.2-0.3 0.4-0.6 0.2-0.3 0.4-0.6zm1.1 4l-5.1 14h10.2z"/>
	<path id="Layer" fill-rule="evenodd" class="s0" d="m760 308.7c4.4 0 7.6 0.5 9.7 1.4q0.7 0.3 1.4 0.6 0.6 0.4 1.2 0.8 0.6 0.4 1.2 0.8 0.5 0.5 1 1 0.5 0.5 0.9 1 0.5 0.5 0.9 1.1 0.4 0.6 0.7 1.1 0.4 0.6 0.6 1.3 0.4 0.8 0.7 1.7 0.2 0.8 0.4 1.7 0.2 0.9 0.2 1.8 0.1 0.9 0.1 1.8 0 0.8-0.1 1.6 0 0.8-0.1 1.6-0.2 0.8-0.4 1.6-0.1 0.7-0.4 1.5-0.3 0.7-0.6 1.4-0.4 0.7-0.8 1.4-0.4 0.6-0.9 1.2-0.5 0.6-1 1.2-0.7 0.6-1.4 1.2-0.7 0.5-1.5 0.9-0.8 0.5-1.7 0.8-0.8 0.3-1.7 0.5-1.2 0.3-2.3 0.4-1.2 0.2-2.4 0.3-1.1 0.2-2.3 0.2-1.2 0-2.3 0h-13.8v-1.4q0.4 0 0.9-0.1 0.4 0 0.8-0.1 0.4-0.2 0.8-0.4 0.4-0.2 0.7-0.4 0.3-0.3 0.5-0.7 0.2-0.3 0.3-0.7 0.2-0.4 0.2-0.8 0.1-0.4 0-0.8v-21q0-0.5 0-0.9-0.1-0.4-0.2-0.8-0.1-0.3-0.3-0.7-0.3-0.3-0.5-0.6-0.4-0.3-0.8-0.5-0.3-0.2-0.8-0.3-0.4-0.1-0.8-0.1-0.4-0.1-0.8 0v-1.6zm-0.2 1.8q-0.4 0-0.8 0-0.4 0.1-0.8 0.1-0.4 0.1-0.8 0.2-0.4 0.1-0.8 0.2-0.2 0.1-0.4 0.2-0.2 0.1-0.4 0.2-0.2 0.1-0.3 0.2-0.2 0.2-0.4 0.3-0.1 0.1-0.2 0.3-0.1 0.1-0.2 0.3-0.1 0.1-0.1 0.3-0.1 0.1-0.1 0.3-0.1 0.2-0.1 0.5 0 0.2-0.1 0.4 0 0.3 0 0.5 0 0.2 0 0.5v20.1q0 0.4 0.1 0.8 0.1 0.4 0.2 0.8 0.2 0.4 0.5 0.7 0.2 0.3 0.5 0.5 0.4 0.3 0.8 0.5 0.5 0.2 0.9 0.3 0.5 0.2 0.9 0.2 0.5 0.1 1 0 0.8 0 1.6 0 0.8-0.1 1.6-0.2 0.9-0.2 1.7-0.4 0.8-0.2 1.5-0.5 0.6-0.3 1.2-0.5 0.6-0.3 1.1-0.7 0.6-0.3 1.1-0.7 0.5-0.5 1-0.9 0.4-0.4 0.8-0.9 0.4-0.5 0.7-1 0.3-0.5 0.6-1 0.3-0.5 0.5-1.1 0.2-0.7 0.4-1.5 0.2-0.7 0.3-1.5 0.2-0.8 0.2-1.5 0.1-0.8 0.1-1.6 0-1.3-0.2-2.7-0.2-1.3-0.6-2.6-0.4-1.3-1-2.5-0.7-1.2-1.5-2.3-3.4-4.1-10.5-4.3z"/>
	<path id="Layer" fill-rule="evenodd" class="s0" d="m873.4 308.7h4.3l9.9 26.8q0.2 0.3 0.3 0.7 0.2 0.3 0.4 0.7 0.2 0.3 0.4 0.6 0.2 0.3 0.5 0.5 0.3 0.3 0.6 0.5 0.4 0.2 0.7 0.3 0.4 0.2 0.8 0.3 0.4 0.1 0.7 0.1v1.4h-12.6v-1.4q0.4 0 0.8 0 0.4 0 0.8-0.1 0.3 0 0.7-0.2 0.4-0.1 0.7-0.3 0.2-0.1 0.3-0.3 0.1-0.1 0.2-0.3 0.1-0.2 0.1-0.4 0-0.2 0-0.4-0.1-0.5-0.2-1-0.1-0.5-0.2-1-0.2-0.5-0.3-1-0.2-0.5-0.4-1-1-2.5-1.5-4.3h-11.8q-0.6 1.9-1.4 4.1-0.2 0.4-0.3 0.8-0.2 0.4-0.3 0.8-0.1 0.5-0.2 0.9 0 0.4-0.1 0.9 0 0.3 0 0.5 0.1 0.3 0.2 0.5 0.1 0.3 0.3 0.5 0.2 0.2 0.4 0.4 0.3 0.2 0.7 0.4 0.3 0.1 0.7 0.2 0.4 0.2 0.8 0.3 0.4 0 0.8 0.1v1.3h-11.8v-1.4q0.4 0 0.7-0.1 0.3-0.1 0.7-0.2 0.3-0.2 0.6-0.3 0.3-0.2 0.5-0.4 0.3-0.2 0.6-0.5 0.3-0.2 0.5-0.5 0.3-0.3 0.5-0.6 0.2-0.3 0.3-0.7zm1.1 4l-5.1 14h10.2z"/>
	<path id="Layer" class="s0" d="m539.5 53q-6.5-0.1-9 3.1-2.5 3.2-2.4 10.2v50.8q-0.1 6.9 2.4 10.2 2.5 3.2 9 3.1v3.9h-35.6v-3.9c4.2 0 7.2-1 8.9-2.8q0.6-0.8 1.1-1.7 0.5-0.9 0.8-1.9 0.4-0.9 0.5-1.9 0.1-1 0.1-2.1v-56.6q0-5.3-2.8-7.8-2.7-2.6-8.6-2.6v-4.1h35.6z"/>
	<path id="Layer" class="s0" d="m582.2 53q-6.6-0.1-9 3.1-2.5 3.2-2.4 10.2v50.8q-0.1 6.9 2.4 10.2 2.5 3.2 8.9 3.1v3.9h-35.5v-3.9q6.3 0 8.9-2.8 0.6-0.8 1.1-1.7 0.5-0.9 0.8-1.9 0.3-0.9 0.5-1.9 0.1-1 0-2.1v-56.6q0-5.3-2.7-7.8-2.8-2.6-8.6-2.6v-4.1h35.6z"/>
</svg>