<svg id="Capa_1" data-name="Capa 1" xmlns="http://www.w3.org/2000/svg" viewBox="0 0 1080 1080"><path d="M406.1,170.37V550.19h33.66v-6q0-36.74,0-73.48c0-14.89,6.39-21.21,21.3-21.22q235.63,0,471.27,0c35.72,0,63.12,22.54,69.29,56.81,6.82,37.83-21.51,74.72-59.85,78-1.78.15-3.54.48-4.68.64C924.8,706.81,863.43,793.1,753,845.62c8.71,16.48,17.64,34.11,35.68,42.29,26.48,12,41.53,32.17,49.41,59.1,8.27,28.28,9.14,57.06,6,86.09-.91,8.54-7.6,14.16-16.8,14.89-1.65.13-3.33,0-5,0-157.09,0-314.19-.28-471.28.17-48,.14-83.2-36-88.75-79.62a132.56,132.56,0,0,1-1-16.43c-.07-45,0-90-.06-134.95-.18-89-29.48-167.54-85.78-236.19a26.69,26.69,0,0,1-6.13-15.88c-1.63-23.42-3.52-46.82-5.39-70.22q-3.22-40.59-6.58-81.15l-7.68-95.1q-3.17-39.33-6.29-78.67c-1.74-21.91-3.49-43.82-5.11-65.74-.22-3-1.28-4.23-4.27-3.91a39.73,39.73,0,0,1-4.5,0c-11.44-.15-18.72-6.77-18.8-18.17q-.34-47,0-94c.07-11,7.47-17.81,18.56-17.82q141.69,0,283.37,0c11.63,0,18.66,6.91,18.69,18.63q.12,45.72,0,91.46c0,13.23-6.68,19.78-20.05,19.87ZM222.79,585.28c1,1.72,1.8,2.94,2.53,4.19,10.15,17.37,21.29,34.24,30.24,52.2,25.2,50.61,38.68,104.44,39.61,161,.8,49,.29,98,.42,147a112.65,112.65,0,0,0,.8,14.46c3.2,24.21,22.33,49.67,54.9,49.54,151.11-.59,302.22-.26,453.32-.26h6.53c0-7.68.33-14.67-.06-21.62-1-17.9-4.23-35.3-12.48-51.5a40.35,40.35,0,0,0-20.27-19.09,87.84,87.84,0,0,1-14-7.53c-17.9-12.34-29.73-29.78-39.95-48.5-1.57-2.89-3-5.83-3.93-7.54-18.68,3-36.45,6.81-54.42,8.72-35.25,3.74-70.55,3.2-105.42-3.86C508.82,852,462.73,829.54,423,794.65Q341.23,723,323.36,615.59c-1.66-10-2.53-20.06-3.79-30.31Zm131.67.05a255.14,255.14,0,0,0,9.84,56.19Q394.18,741.6,483.38,796c42.54,25.91,89.08,37.64,138.79,37.94,32.34.19,64.3-2.23,95-12.87q138.71-48,177.37-189.89c4-14.77,5.52-30.21,8.28-45.82ZM202.91,550.05H371V170.67H172.44Q187.7,360.67,202.91,550.05Zm271.57.42h416.8c15.32,0,30.65.28,46-.23,17-.57,31-15.63,30.94-32.53,0-19.4-14.73-33.51-35.1-33.51q-226.83,0-453.65,0c-1.61,0-3.22.15-4.95.24Zm-329-415H396.92V75.05H145.45Z"/><path d="M843.53,607c11.67.27,19.24,10.71,15.74,22.32-5.8,19.29-15.58,36.66-27,53.11-24.8,35.74-56.79,63.65-94,85.76-3.43,2-6.83,4.13-10.3,6.1-9.08,5.2-18.76,3.05-24-5.26s-2.75-18.38,6.19-24.18c12.55-8.14,25.65-15.53,37.58-24.49,33.12-24.85,59.93-55.07,76.15-93.76,1.16-2.75,2-5.61,3.11-8.4C829.76,610.91,835.85,606.81,843.53,607Z"/></svg>