<svg id="Capa_1" data-name="Capa 1" xmlns="http://www.w3.org/2000/svg" viewBox="0 0 1080 1080"><path d="M975.86,780.67H125.5c0,8.16,0,16.05,0,23.93,0,7.11.11,14.22-.06,21.32-.21,8.63-7,15.23-15.13,15.11s-14.51-6.37-14.65-15c-.2-11.73-.1-23.46-.1-35.2,0-70.06-.09-140.13.19-210.2.14-32.76,23.85-62.31,55.76-70.65,1.42-.37,2.83-.8,4.61-1.3v-6.48c0-64.61-.32-129.23.24-193.84.35-40.95,33.64-73.34,74.63-74.1.66,0,1.32,0,2,0q317.52,0,635,0c38.19,0,69.19,25.71,75.91,63a87.75,87.75,0,0,1,1.23,15.28q.12,95.43,0,190.87c0,4.21,1.14,5.79,5.34,6.89,32.22,8.45,55.31,38.59,55.37,72.58q.23,120.72,0,241.44c0,9.76-6.44,16.71-15.16,16.65s-14.81-6.78-14.83-16.85c0-12.56,0-25.12,0-37.68ZM125.5,689.11h850a17.65,17.65,0,0,0,.31-2.23c0-34,.19-68.09,0-102.13-.21-32-25.58-47.23-46.31-47.22q-378.75.19-757.48.1c-26.41,0-46.43,20-46.5,46.37,0,16.36,0,32.72,0,49.08ZM231.78,507.57c0-3,0-5.12,0-7.25.2-29.9-.49-59.83.85-89.68,1.36-30.25,27.81-54.57,58.12-54.69q92.94-.37,185.88,0c30.83.13,57.43,25.68,58.24,56.24.76,28.56.33,57.16.4,85.74,0,9.65,0,9.65,9.68,9.65h20.79v-6.8c0-28.59-.46-57.19.3-85.76.91-34.33,27.29-59.15,61.64-59.15H806.63c36.47,0,62.51,25.93,62.54,62.29q0,41.64,0,83.28v5.76h45.42a35.11,35.11,0,0,0,.36-3.54q0-96.17,0-192.34c0-10-2.51-19.27-8.38-27.46-10.35-14.41-24.88-19.61-42.12-19.6q-313.28.11-626.56.05c-1.15,0-2.31,0-3.47,0-29.64.68-48.19,19.65-48.19,49.3V500c0,1.49-.35,3.11.12,4.43s1.75,3,2.7,3C203.09,507.63,217.1,507.57,231.78,507.57Zm273.42-.23c0-30.81.23-61-.08-91.26-.18-17.56-13.63-30.17-31.31-30.18q-90.21,0-180.42,0c-18.09,0-31.16,13.15-31.17,31.31q0,42.38,0,84.76c0,1.74.15,3.48.23,5.37Zm91-.25H839.3V459.55c0-13.55.1-27.1,0-40.64-.19-20.46-12.88-33-33.19-33H628.18c-19.17,0-32,12.78-32,31.92q0,41.88,0,83.75ZM125.79,719.47v30.29H975.86c0-8.26-.31-16.18.11-24.06.27-5-1.17-6.35-6.27-6.34q-418.89.2-837.78.11Z"/></svg>