<svg id="Capa_1" data-name="Capa 1" xmlns="http://www.w3.org/2000/svg" viewBox="0 0 1080 1080"><path d="M95.87,543.8q0-218.17-.1-436.34c0-18.5,4.92-34.84,17.29-48.61C125.81,44.67,141.88,36.59,161,36.58q374.85-.22,749.68-.07c31.53,0,60.27,25.51,64.47,56.8a95.7,95.7,0,0,1,.91,12.42q.06,438.6,0,877.2c0,35.63-23.3,63.09-58.44,68.76-4.23.68-8.63.44-13,.44q-288.12,0-576.25,0-82.47,0-164.93,0c-32.81,0-60-22.32-66.36-54.57-1.14-5.83-1.2-11.93-1.2-17.91Q95.83,761.73,95.87,543.8ZM129.4,307.47V981.12c0,23.67,13.87,37.7,37.47,37.7q369.09,0,738.17.1c22.3,0,37.62-15.62,37.6-37.34q-.42-334.37-.18-668.74c0-1.75-.16-3.5-.25-5.37Zm0-34.3H942.18c.11-1.22.27-2.18.27-3.14,0-55,.17-110-.21-164.95a40.39,40.39,0,0,0-5-18.43c-6.85-12.43-18.48-16.54-32.38-16.53q-368.85.16-737.7.08c-1.17,0-2.33,0-3.5,0-20.3.52-34.28,14.8-34.29,35.08q0,81.21,0,162.44Z"/><path d="M535.62,984.51c-170.75,1.3-325-138.5-321.44-330.1,3.15-171.7,146.66-315.13,325.92-313.16,167.51,1.85,317.13,136.68,317.28,323.52C857.52,842.57,710.63,985.26,535.62,984.51ZM824.06,664.72c-.52-163.6-131.87-289-286.91-289.68C379.07,374.36,249.59,503,248,658.59c-1.6,160,125.33,290.61,284.79,292.49C691.67,953,822.27,824.54,824.06,664.72Z"/><path d="M264.94,104.1q40.74,0,81.47,0c13.91,0,20,6.15,20,20.13q0,31,0,62,0,19.2-19.44,19.24-82,0-163.93,0c-13.11,0-19.56-6.53-19.57-19.7q0-31.24,0-62.48c0-12.52,6.48-19.12,19-19.16C210,104.06,237.46,104.1,264.94,104.1Zm-67.69,67.67H332.46V138.15H197.25v33.62Z"/><path d="M637.6,104.14c37.5,0,67.67,30.45,67.58,68.23-.09,36.95-30.51,67.09-67.69,67.07-37.66,0-67.44-30.14-67.4-68.2A67.25,67.25,0,0,1,637.6,104.14Zm-.35,101.52c18.88,0,34-14.58,34.17-33,.16-19.34-14.54-34.56-33.6-34.79-18.41-.23-34.19,15.07-34.24,33.19C603.53,190.56,618.18,205.62,637.25,205.66Z"/><path d="M739.44,222V189h33.22v33Z"/><path d="M807.29,222.09V189h33.13v33.05Z"/><path d="M739.53,121.39h33.25v32.92H739.53Z"/><path d="M807.43,121.37h32.94v33H807.43Z"/><path d="M875.3,189h32.77v33.2H875.3Z"/><path d="M908.07,154.44H875.21V121.53h32.86Z"/><path d="M282.06,663.09C282.25,524,393.24,413.87,526.8,409.24c143.24-5,260.6,108.68,263,248.91,2.48,142.5-111,257-249.89,258.62C397.06,918.48,283.17,805.74,282.06,663.09ZM755.16,680a14.56,14.56,0,0,0,.26-1.52c2.05-19.88.47-39.62-3.53-59.08C727.51,500.81,613,424,494.48,446.59,391.4,466.24,315.61,557.77,315.72,662.66a218.52,218.52,0,0,0,16.63,83.63c5.06,12.32,8.68,14,21.23,8.91a34.33,34.33,0,0,0,10.29-6,157.53,157.53,0,0,0,15.46-16.18c11.08-13.49,20.76-28.28,32.85-40.75,29.23-30.16,75.37-30,105.07-.31,8.42,8.42,15.38,18.32,22.93,27.6,6.92,8.52,13.08,17.77,20.74,25.54,16.34,16.58,39.06,17,56.53,1.75a95.78,95.78,0,0,0,11.79-12.84c9.58-12.15,18.32-25,28.45-36.67,18.85-21.72,42.85-31.15,71.5-25.91C738,673.09,746.42,677.05,755.16,680ZM354.83,789.8c10.64,11.66,19.81,23.13,30.4,33.08,45,42.29,98.85,62.79,160.44,60,64.9-2.92,118.4-30.42,160.15-80.24a210.42,210.42,0,0,0,41.46-78.91c.45-1.59.26-4.1-.73-5.26-15.17-17.83-40.46-20.11-57.74-4.44-7.68,7-13.74,15.75-20.4,23.81-8.78,10.63-16.65,22.15-26.31,31.91-25.38,25.64-64.15,28.9-93.7,8.72-12-8.2-21-19.36-29.56-30.87-7.26-9.73-14.23-19.75-22.27-28.81-18.26-20.54-45.25-20.32-63.73.06-4.13,4.56-7.88,9.46-11.65,14.32-3,3.81-5.71,7.78-8.52,11.71C398.24,765.1,382.14,783.23,354.83,789.8Z"/><path d="M536.46,493.21V460.05a197.44,197.44,0,0,1,98,25.3c35.93,19.87,63,48.49,82.36,85.2l-29.64,15.23C654.05,526.7,603.84,496.05,536.46,493.21Z"/></svg>