<svg id="Capa_1" data-name="Capa 1" xmlns="http://www.w3.org/2000/svg" viewBox="0 0 1080 1080"><defs><style>.cls-1{fill:#fff;}</style></defs><path class="cls-1" d="M139.86,551.61,85.68,673H66.59l72.2-158.65h1.94L213,673H193.84Z"/><path class="cls-1" d="M502.34,551.61,448.16,673H429.07l72.2-158.65h1.94L575.51,673H556.32Z"/><path class="cls-1" d="M403.82,601.33c0,43.81-33.73,73.76-74.05,73.76-44.87,0-80.92-36.06-80.92-80.15S285,514.59,329.1,514.59c19.19.1,42.54,9.79,56.6,23.45l-9.89,14.64c-12.11-12-31.11-20.45-46.81-20.45-32.95,0-62.22,27.33-62.22,62.71,0,34.3,27.62,62.31,63.67,62.31C361,657.25,385,636.8,385,609.18a29.22,29.22,0,0,0-.1-3.1h-56V590.19h74.24A100.24,100.24,0,0,1,403.82,601.33Z"/><path class="cls-1" d="M736.36,516.72,665.22,675.38h-2.13L592.24,516.72H611l53.11,121,53.3-121Z"/><path class="cls-1" d="M812.6,534.07V583.5h64.25v17.64H812.6v54.27h74.14V673H795V516.72h91.78v17.35Z"/><path class="cls-1" d="M446.38,703.6a22.4,22.4,0,0,1,12.09,3.24q8.5,5.4,8.5,17,0,9-5.8,14.59t-15,5.67H427.54v-1.76h5.4v-37h-5.4V703.6Zm-7.63,1.75v37h7.63a17.4,17.4,0,0,0,2.63-.2q11.49-1.75,11.48-18.57a31.77,31.77,0,0,0-1-8.51q-2.64-9.72-13.3-9.72Z"/><path class="cls-1" d="M512.13,739.52q-3.45,5.26-10.74,5.26a14.46,14.46,0,0,1-8.17-2.36q-6-4-6-12.42a17.53,17.53,0,0,1,1.9-8.24q3.64-7,12.08-7a14.76,14.76,0,0,1,7.63,2q4.67,2.71,4.66,7.3a4.49,4.49,0,0,1-1.82,3.84q-2.37,1.7-10.6,1.56l-8.11-.14a26.49,26.49,0,0,0,.61,5.2q1.83,8.44,8.91,8.44a11.65,11.65,0,0,0,1.29-.07,9.33,9.33,0,0,0,7.63-5.8l1.68.61A16.6,16.6,0,0,1,512.13,739.52ZM498,717.23q-4.72,2.37-5.07,10.13l7.16.21a23.18,23.18,0,0,0,4.79-.28,3.8,3.8,0,0,0,3.25-4.11,7.05,7.05,0,0,0-.54-2.77q-1.56-4-6.28-4A7,7,0,0,0,498,717.23Z"/><path class="cls-1" d="M542.5,743q4.66,0,6.28-2.84a4.26,4.26,0,0,0,.61-2.22c0-1.89-1.38-3.52-4.12-4.87-.59-.31-1.55-.76-2.9-1.35-3.7-1.53-6.15-3-7.37-4.32a7.64,7.64,0,0,1-2-5.2c0-3.1,1.71-5.29,5.13-6.55a14.69,14.69,0,0,1,5.13-.87,15,15,0,0,1,7.7,1.89c0-1.31.31-2,.94-2.23a4.91,4.91,0,0,1,.88-.07v8.44h-1.76q-.14-6.21-6.88-6.28-5.07,0-6.28,3a4.29,4.29,0,0,0-.34,1.69q0,2.91,4.19,4.93c.63.31,1.62.74,3,1.28,3.64,1.49,6.08,2.91,7.29,4.26a7.36,7.36,0,0,1,2,5.13q0,5.46-5.81,7.29a16,16,0,0,1-13.3-1.69c0,1.17-.29,1.85-.88,2a6.46,6.46,0,0,1-.94.06V734.18h1.89Q535.07,742.9,542.5,743Z"/><path class="cls-1" d="M591.37,738.71a9.45,9.45,0,0,1-1.82,2.7,11.29,11.29,0,0,1-8.31,3.37,10.23,10.23,0,0,1-3.85-.74,7,7,0,0,1-4.52-7,9.18,9.18,0,0,1,.4-2.77q2.29-6.62,18.17-6.62v-4.25q-.21-6.55-6.55-7a4.72,4.72,0,0,0-4,1.69,20.34,20.34,0,0,0-1.28,3c-.49,1.31-1.26,2-2.29,2a3.14,3.14,0,0,1-.68-.07,2.18,2.18,0,0,1-2-2.43,4,4,0,0,1,.81-2.29q2.57-3.51,10.13-3.51h1.22q9.64.54,9.65,10.19v14.25c0,2.25.65,3.42,1.82,3.51q2.16-.06,2.64-5l1.75.07a5,5,0,0,1-.06.74q-.54,6.29-5.74,6.28C593.76,744.74,591.91,742.71,591.37,738.71Zm-4.86,2.7a9,9,0,0,0,4.93-6.55v-5.4a42.79,42.79,0,0,0-8,.67c-3.46.81-5.2,2.72-5.2,5.74a9.6,9.6,0,0,0,.21,2.09c.63,2.75,2.31,4.12,5.06,4.12A7.61,7.61,0,0,0,586.51,741.41Z"/><path class="cls-1" d="M634.7,742.49q1,.13,1,1.62H619v-1.69a11.35,11.35,0,0,0,3.31-.34c1.17-.4,1.75-1.64,1.75-3.71V717.1H619v-1.69h9.79l.27,6.69a12.92,12.92,0,0,1,2.36-3.65,9.61,9.61,0,0,1,7.23-3.44,6.54,6.54,0,0,1,1.28.13,3.5,3.5,0,0,1,3.11,3.71,2.46,2.46,0,0,1-.14.81,2.42,2.42,0,0,1-2.56,2,2.5,2.5,0,0,1-.81-.13c-.64-.18-1.31-.9-2-2.16s-1.33-1.69-2.09-1.69a4.56,4.56,0,0,0-2.5,1.49,13.18,13.18,0,0,0-3.78,9.85v13.44H634A2.55,2.55,0,0,1,634.7,742.49Z"/><path class="cls-1" d="M675.07,742.49c.67.09,1,.63,1,1.62H659.4v-1.69a11.31,11.31,0,0,0,3.31-.34c1.17-.4,1.76-1.64,1.76-3.71V717.1H659.4v-1.69h9.79l.27,6.69a13.17,13.17,0,0,1,2.37-3.65,9.57,9.57,0,0,1,7.22-3.44,6.54,6.54,0,0,1,1.28.13,3.5,3.5,0,0,1,3.11,3.71,2.46,2.46,0,0,1-.14.81,2.42,2.42,0,0,1-2.56,2,2.54,2.54,0,0,1-.81-.13c-.63-.18-1.31-.9-2-2.16s-1.33-1.69-2.09-1.69a4.56,4.56,0,0,0-2.5,1.49,13.18,13.18,0,0,0-3.78,9.85v13.44h4.86A2.63,2.63,0,0,1,675.07,742.49Z"/><path class="cls-1" d="M723.26,717.1q6.29,4.13,6.28,12.63a14.73,14.73,0,0,1-3.92,10.46,14,14,0,0,1-10.73,4.59,14.58,14.58,0,0,1-8.37-2.56q-6.22-4.26-6.21-12.76a14.18,14.18,0,0,1,4-10.27,14.42,14.42,0,0,1,10.8-4.45A14.86,14.86,0,0,1,723.26,717.1ZM706.52,735q1.76,8.1,8.57,8.1a9.48,9.48,0,0,0,2.5-.33q6.21-2,6.21-13.3a30,30,0,0,0-.2-3.58q-1.22-9.45-8.71-9.46a9,9,0,0,0-3.11.54q-5.73,2.31-5.74,12.77A26.47,26.47,0,0,0,706.52,735Z"/><path class="cls-1" d="M762.75,742.49c.67.09,1,.63,1,1.62H748.3v-1.69a11.35,11.35,0,0,0,3.31-.34c1.17-.4,1.75-1.64,1.75-3.71V701.91H748.3v-1.69h10.13v42.2h3.64A2.63,2.63,0,0,1,762.75,742.49Z"/><path class="cls-1" d="M796.09,742.49c.67.09,1,.63,1,1.62H781.64v-1.69a11.35,11.35,0,0,0,3.31-.34c1.17-.4,1.75-1.64,1.75-3.71V701.91h-5.06v-1.69h10.13v42.2h3.64A2.63,2.63,0,0,1,796.09,742.49Z"/><path class="cls-1" d="M838.41,717.1q6.27,4.13,6.28,12.63a14.73,14.73,0,0,1-3.92,10.46A14,14,0,0,1,830,744.78a14.59,14.59,0,0,1-8.38-2.56q-6.21-4.26-6.21-12.76a14.18,14.18,0,0,1,4-10.27,14.42,14.42,0,0,1,10.8-4.45A14.89,14.89,0,0,1,838.41,717.1ZM821.66,735q1.76,8.1,8.58,8.1a9.53,9.53,0,0,0,2.5-.33q6.21-2,6.21-13.3a30,30,0,0,0-.2-3.58q-1.21-9.45-8.71-9.46a9,9,0,0,0-3.11.54q-5.74,2.31-5.74,12.77A27.28,27.28,0,0,0,821.66,735Z"/><path class="cls-1" d="M874,743q4.66,0,6.28-2.84a4.17,4.17,0,0,0,.61-2.22c0-1.89-1.37-3.52-4.12-4.87-.58-.31-1.55-.76-2.9-1.35q-5.53-2.29-7.36-4.32a7.6,7.6,0,0,1-2-5.2c0-3.1,1.71-5.29,5.13-6.55a14.79,14.79,0,0,1,5.14-.87,15,15,0,0,1,7.69,1.89c0-1.31.32-2,1-2.23a4.83,4.83,0,0,1,.88-.07v8.44h-1.76q-.14-6.21-6.89-6.28c-3.37,0-5.47,1-6.28,3a4.46,4.46,0,0,0-.33,1.69q0,2.91,4.18,4.93c.63.31,1.62.74,3,1.28q5.47,2.24,7.3,4.26a7.4,7.4,0,0,1,1.95,5.13q0,5.46-5.8,7.29a15.47,15.47,0,0,1-4.86.74,15.25,15.25,0,0,1-8.44-2.43c0,1.17-.3,1.85-.88,2a6.6,6.6,0,0,1-.95.06V734.18h1.89Q866.62,742.9,874,743Z"/><polygon class="cls-1" points="975.41 601.33 1004.92 630.84 1000.12 635.42 973.91 608.89 947.81 635.42 943.08 630.98 972.38 601.33 975.41 601.33"/><polygon class="cls-1" points="972.41 590.16 942.9 560.66 947.7 556.07 973.91 582.61 1000.01 556.07 1004.74 560.51 975.44 590.16 972.41 590.16"/><polygon class="cls-1" points="968.78 597.55 939.28 627.05 934.69 622.26 961.23 596.04 934.69 569.95 939.14 565.22 968.78 594.52 968.78 597.55"/><polygon class="cls-1" points="979.95 594.55 1009.46 565.04 1014.04 569.84 987.51 596.05 1014.04 622.15 1009.6 626.88 979.95 597.58 979.95 594.55"/><path class="cls-1" d="M974.38,627.2,962,654.94h-4.37l16.51-36.27h.44l16.52,36.27h-4.38Z"/><path class="cls-1" d="M974.36,564.9l12.38-27.74h4.36l-16.5,36.27h-.44l-16.53-36.27H962Z"/><rect class="cls-1" x="971.02" y="592.32" width="6.7" height="6.7" transform="translate(706.59 -514.51) rotate(45)"/><path class="cls-1" d="M10.36,404.33V347.88H34.07v56.4c0,7.37,6.33,12.26,13,12.26s13.14-5,13.14-12.26v-56.4H84v56.45c0,20.36-16.51,34.72-36.81,34.72S10.36,424.69,10.36,404.33Z"/><path class="cls-1" d="M175.31,347.77v89.68h-7.49l-45.61-44.18v43.36H98.66V347h7.6l45.44,44V347.77Z"/><path class="cls-1" d="M225.18,347.88h33.5c18.27,0,33.51,13.76,33.51,31.08,0,17.12-14.91,31.48-33.51,31.48h-10v26.13H225.18Zm44.28,31.2c0-5.4-4.51-9.47-10.78-9.47h-10v19.1l10,.05C265,388.81,269.46,384.52,269.46,379.08Z"/><path class="cls-1" d="M349.62,436.57,325.9,398.06v38.51H302.35l-.1-88.69h33.66c19.16,0,32.86,12.93,32.86,28.83A26.72,26.72,0,0,1,353.42,401l23.76,35.6Zm-23.83-49.74,9.63.06c5,.05,9.57-3.47,9.57-8.91s-4.62-8.92-9.57-8.92h-9.63Z"/><path class="cls-1" d="M381.85,392.33c0-26.63,21.13-46.82,48.69-46.82s48.69,20.19,48.69,46.82c0,26.42-21.12,46.5-48.74,46.5S381.85,418.75,381.85,392.33Zm73.56-.16c0-13.7-10.78-24.26-24.87-24.26s-24.86,10.56-24.86,24.26,10.78,24.16,24.86,24.16S455.41,405.82,455.41,392.17Z"/><path class="cls-1" d="M501.73,398.28l-27.34-50.4h26.69l12.37,25.69,12.33-25.69h26.74l-27.4,50.4v38.29H501.73Z"/><path class="cls-1" d="M584.7,369.78v12.38h28.17V401.8H584.7v12.71h34.22v22.06h-57.5V347.88h57.5v21.9Z"/><path class="cls-1" d="M628.2,392.23c0-26.25,21.24-46.44,48.86-46.44,11.45.16,23.72,5.17,32.79,13.42L696.32,376.6c-5.45-5-12.66-8.2-19.2-8.2-13.65,0-25,10.4-25,24,0,13.76,11.89,23.88,24.54,23.88,7.43,0,14.09-3.52,19.81-8.64l13.42,17.89a48.82,48.82,0,0,1-33.23,13C651.59,438.55,628.2,420.06,628.2,392.23Z"/><path class="cls-1" d="M780.66,369.89H759.42v66.68h-23.6V369.89h-21.3v-22h66.14Z"/><path class="cls-1" d="M782.45,392.33c0-26.63,21.13-46.82,48.7-46.82s48.69,20.19,48.69,46.82c0,26.42-21.13,46.5-48.75,46.5S782.45,418.75,782.45,392.33Zm73.57-.16c0-13.7-10.78-24.26-24.87-24.26s-24.87,10.56-24.87,24.26,10.78,24.16,24.87,24.16S856,405.82,856,392.17Z"/><path class="cls-1" d="M1003.39,392.33c0,27.52-18.44,44.24-48.59,44.24H925.86V347.94l28.94-.06C985,347.77,1003.39,364.6,1003.39,392.33Zm-23.61-.05c0-13.92-9.68-22.39-25.58-22.39h-5.39V414.4h5.61C970.15,414.4,979.78,406,979.78,392.28Z"/><path class="cls-1" d="M1038.27,369.78v12.38h28.17V401.8h-28.17v12.71h34.22v22.06H1015V347.88h57.5v21.9Z"/></svg>