<?xml version="1.0" encoding="utf-8"?>
<!-- Generator: Adobe Illustrator 25.2.3, SVG Export Plug-In . SVG Version: 6.00 Build 0)  -->
<svg version="1.1" id="Capa_1" xmlns="http://www.w3.org/2000/svg" xmlns:xlink="http://www.w3.org/1999/xlink" x="0px" y="0px"
	 viewBox="0 0 1080 730.7" style="enable-background:new 0 0 1080 730.7;" xml:space="preserve">
<style type="text/css">
	.st0{fill:#010101;}
	.st1{font-family:'CenturySchoolbook-Italic';}
	.st2{font-size:72.3782px;}
	.st3{fill:#B0B0AF;stroke:#010101;stroke-width:0.25;stroke-miterlimit:10;}
	.st4{fill:#032734;}
	.st5{fill:#828383;}
	.st6{font-family:'Century';}
	.st7{font-size:42.49px;}
	.st8{letter-spacing:-2;}
	.st9{letter-spacing:-4;}
</style>
<text transform="matrix(1 0 0 1 214.5996 717.9958)" class="st0 st1 st2">Planta Niveles 2 al 4</text>
<image style="overflow:visible;enable-background:new    ;" width="3231" height="1802" xlink:href="38B8CEFF.png"  transform="matrix(0.3 0 0 0.3 93.53 82.6555)">
</image>
<polygon class="st3" points="123.8,86.9 123.8,93.4 111.7,93.4 111.7,192.2 112.7,192.2 112.7,194.3 269.6,194.3 269.6,146.9 
	260.6,146.9 260.6,133.6 268.9,133.6 268.9,86.2 233.4,86.2 233.4,84.1 201.4,84.1 201.4,87 "/>
<polygon class="st4" points="270,198.5 270,235.9 261.1,235.9 261.1,249.8 270.6,249.8 270.6,296.1 96.6,296.1 96.6,249.9 
	112.3,249.9 112.3,198.9 "/>
<polygon class="st4" points="112.7,299.7 112.7,351.3 96.9,351.3 96.9,396.2 269.3,396.2 269.3,350.8 260.9,350.8 260.9,337.4 
	269.6,337.4 269.6,299.5 "/>
<polygon class="st4" points="269.6,398.6 112.7,398.6 112.7,450.6 95.6,450.6 95.6,497.2 268.9,497.2 268.9,451.3 260,451.3 
	260,436.6 269.3,436.6 "/>
<polygon class="st3" points="111.9,501.4 111.9,601.4 123.8,601.4 123.8,608.2 194.7,608.2 194.7,613.3 270,613.3 270,561.6 
	261.2,561.6 261.2,547.1 269.3,547.1 269.3,501.9 "/>
<polygon class="st3" points="1029.2,193.9 1029.2,94.8 1017.8,94.8 1017.8,86.6 946.2,86.6 946.2,93.9 909.1,93.9 909.1,86.4 
	871.1,86.4 871.1,133.3 879.8,133.3 879.8,147.9 871.3,147.9 871.3,193.2 "/>
<polygon class="st4" points="871,197.2 871,236.4 879.6,236.4 879.6,249.8 871.2,249.8 871.2,296.1 1044.2,296.1 1044.2,249.8 
	1029.4,249.8 1029.4,197.5 "/>
<polygon class="st4" points="871,297.9 871,337.1 879.6,337.1 879.6,350.5 871.2,350.5 871.2,396.8 1044.2,396.8 1044.2,350.5 
	1029.4,350.5 1029.4,298.3 "/>
<polygon class="st4" points="871,399.3 871,438.5 879.6,438.5 879.6,451.8 871.2,451.8 871.2,498.2 1044.2,498.2 1044.2,451.8 
	1029.4,451.8 1029.4,399.6 "/>
<polygon class="st3" points="870.9,500.7 870.9,547.7 880,547.7 880,561.6 871,561.6 871,611 945.7,611 945.7,609.8 1018,609.8 
	1018,601 1029.4,601 1029.4,501.2 "/>
<polygon class="st3" points="384.5,394 384.5,403.6 373.3,403.6 373.3,422.1 311.6,422.1 311.6,517.6 315.2,517.6 315.2,531.4 
	311.6,531.4 311.6,563 417.6,563 417.6,394 "/>
<polygon class="st3" points="757,394 757,403.6 768.1,403.6 768.1,422.1 829.8,422.1 829.8,517.6 826.3,517.6 826.3,531.4 
	829.8,531.4 829.8,563 723.8,563 723.8,394 "/>
<polygon class="st3" points="420.6,563 519.4,563 519.4,394.5 482.9,394.5 482.9,391.1 473.1,391.1 473.1,392.8 460.2,392.8 
	460.2,361.8 416.4,361.8 416.4,391.1 420.3,391.1 "/>
<polygon class="st3" points="720.1,563 621.2,563 621.2,394.5 657.8,394.5 657.8,391.1 667.5,391.1 667.5,392.8 680.5,392.8 
	680.5,361.8 724.3,361.8 724.3,391.1 720.4,391.1 "/>
<polygon class="st3" points="619.8,393.8 619.8,549.9 568.2,549.9 568.2,562.7 521.6,562.7 521.6,393.8 568.6,393.8 568.6,402.9 
	581.3,402.9 581.3,394.5 "/>
<polygon class="st3" points="384.5,300.8 384.5,291.1 373.3,291.1 373.3,272.6 311.6,272.6 311.6,177.2 315.2,177.2 315.2,163.4 
	311.6,163.4 311.6,131.8 417.6,131.8 417.6,300.8 "/>
<polygon class="st3" points="757,300.8 757,291.1 768.1,291.1 768.1,272.6 829.8,272.6 829.8,177.2 826.3,177.2 826.3,163.4 
	829.8,163.4 829.8,131.8 723.8,131.8 723.8,300.8 "/>
<polygon class="st3" points="420.6,131.8 519.4,131.8 519.4,300.3 482.9,300.3 482.9,303.7 473.1,303.7 473.1,302 460.2,302 
	460.2,333 416.4,333 416.4,303.7 420.3,303.7 "/>
<polygon class="st3" points="720.1,131.8 621.2,131.8 621.2,300.3 657.8,300.3 657.8,303.7 667.5,303.7 667.5,302 680.5,302 
	680.5,333 724.3,333 724.3,303.7 720.4,303.7 "/>
<polygon class="st3" points="619.8,300.9 619.8,144.9 568.2,144.9 568.2,132.1 521.6,132.1 521.6,300.9 568.6,300.9 568.6,291.9 
	581.3,291.9 581.3,300.3 "/>
<text transform="matrix(6.123234e-17 -1 1 6.123234e-17 64.05 579.9451)" class="st5 st6 st7">CALZAD</text>
<text transform="matrix(6.123234e-17 -1 1 6.123234e-17 64.05 400.5359)" class="st5 st6 st7 st8">A</text>
<text transform="matrix(6.123234e-17 -1 1 6.123234e-17 64.05 372.1951)" class="st5 st6 st7"> DE</text>
<text transform="matrix(6.123234e-17 -1 1 6.123234e-17 64.05 296.656)" class="st5 st6 st7">L</text>
<text transform="matrix(6.123234e-17 -1 1 6.123234e-17 64.05 269.0759)" class="st5 st6 st7"> </text>
<text transform="matrix(6.123234e-17 -1 1 6.123234e-17 64.05 257.2751)" class="st5 st6 st7 st9">V</text>
<text transform="matrix(6.123234e-17 -1 1 6.123234e-17 64.05 231.2957)" class="st5 st6 st7">ALLE</text>
<text transform="matrix(1 0 0 1 443.83 45.6255)" class="st5 st6 st7">PLAZ</text>
<text transform="matrix(1 0 0 1 557.16 45.6255)" class="st5 st6 st7 st8">A</text>
<text transform="matrix(1 0 0 1 585.5 45.6255)" class="st5 st6 st7"> DUENDES</text>
</svg>
