<?xml version="1.0" encoding="utf-8"?>
<!-- Generator: Adobe Illustrator 25.2.3, SVG Export Plug-In . SVG Version: 6.00 Build 0)  -->
<svg version="1.1" id="Capa_1" xmlns="http://www.w3.org/2000/svg" xmlns:xlink="http://www.w3.org/1999/xlink" x="0px" y="0px"
	 viewBox="0 0 1080 739.9" style="enable-background:new 0 0 1080 739.9;" xml:space="preserve">
<style type="text/css">
	.st0{fill:#010101;}
	.st1{font-family:'CenturySchoolbook-Italic';}
	.st2{font-size:73.8456px;}
	.st3{fill:#B0B0AF;stroke:#010101;stroke-width:0.25;stroke-miterlimit:10;}
	.st4{fill:#032734;}
	.st5{fill:#828383;}
	.st6{font-family:'Century';}
	.st7{font-size:43.35px;}
	.st8{letter-spacing:-2;}
	.st9{letter-spacing:-4;}
</style>
<text transform="matrix(1 0 0 1 210.7295 726.727)" class="st0 st1 st2">Planta Niveles 2 al 6</text>
<image style="overflow:visible;enable-background:new    ;" width="3229" height="1801" xlink:href="66E3CBD8.png"  transform="matrix(0.3002 0 0 0.3002 87.2411 78.4974)">
</image>
<polygon class="st3" points="118.1,82.8 118.1,89.4 105.8,89.4 105.8,190.3 106.7,190.3 106.7,192.4 266.9,192.4 266.9,144 
	257.7,144 257.7,130.5 266.1,130.5 266.1,82.1 229.9,82.1 229.9,79.9 197.3,79.9 197.3,82.9 "/>
<polygon class="st3" points="267.2,196.7 267.2,234.9 258.2,234.9 258.2,249 267.9,249 267.9,296.2 90.4,296.2 90.4,249.1 
	106.4,249.1 106.4,197.1 "/>
<polygon class="st3" points="106.7,299.9 106.7,352.5 90.7,352.5 90.7,398.4 266.6,398.4 266.6,352.1 258,352.1 258,338.4 
	266.9,338.4 266.9,299.7 "/>
<polygon class="st3" points="266.8,400.8 106.7,400.8 106.7,453.9 89.3,453.9 89.3,501.5 266.1,501.5 266.1,454.6 257.1,454.6 
	257.1,439.6 266.6,439.6 "/>
<polygon class="st3" points="106,505.7 106,607.8 118.1,607.8 118.1,614.7 190.4,614.7 190.4,619.9 267.3,619.9 267.3,567.1 
	258.2,567.1 258.2,552.4 266.6,552.4 266.6,506.2 "/>
<polygon class="st3" points="1041.9,192 1041.9,90.9 1030.2,90.9 1030.2,82.5 957.2,82.5 957.2,89.9 919.3,89.9 919.3,82.3 
	880.6,82.3 880.6,130.1 889.4,130.1 889.4,145.1 880.8,145.1 880.8,191.3 "/>
<polygon class="st3" points="880.5,195.4 880.5,235.3 889.2,235.3 889.2,249 880.7,249 880.7,296.2 1057.2,296.2 1057.2,249 
	1042.1,249 1042.1,195.7 "/>
<polygon class="st3" points="880.5,298.1 880.5,338.1 889.2,338.1 889.2,351.8 880.7,351.8 880.7,399 1057.2,399 1057.2,351.8 
	1042.1,351.8 1042.1,298.5 "/>
<polygon class="st3" points="880.5,401.6 880.5,441.5 889.2,441.5 889.2,455.2 880.7,455.2 880.7,502.4 1057.2,502.4 1057.2,455.2 
	1042.1,455.2 1042.1,401.9 "/>
<polygon class="st3" points="880.3,505 880.3,553 889.6,553 889.6,567.1 880.5,567.1 880.5,617.6 956.7,617.6 956.7,616.4 
	1030.4,616.4 1030.4,607.3 1042,607.3 1042,505.5 "/>
<polygon class="st3" points="384.1,396.2 384.1,406 372.7,406 372.7,424.9 309.7,424.9 309.7,522.2 313.4,522.2 313.4,536.4 
	309.7,536.4 309.7,568.6 417.9,568.6 417.9,396.2 "/>
<polygon class="st3" points="764.1,396.2 764.1,406 775.5,406 775.5,424.9 838.5,424.9 838.5,522.2 834.8,522.2 834.8,536.4 
	838.5,536.4 838.5,568.6 730.3,568.6 730.3,396.2 "/>
<polygon class="st3" points="420.9,568.6 521.8,568.6 521.8,396.6 484.4,396.6 484.4,393.2 474.5,393.2 474.5,395 461.3,395 
	461.3,363.3 416.6,363.3 416.6,393.1 420.6,393.1 "/>
<polygon class="st3" points="726.5,568.6 625.6,568.6 625.6,396.6 662.9,396.6 662.9,393.2 672.8,393.2 672.8,395 686,395 
	686,363.3 730.7,363.3 730.7,393.1 726.8,393.1 "/>
<polygon class="st4" points="624.2,396 624.2,555.2 571.5,555.2 571.5,568.2 524,568.2 524,396 571.9,396 571.9,405.2 584.9,405.2 
	584.9,396.6 "/>
<polygon class="st3" points="384.1,301 384.1,291.2 372.7,291.2 372.7,272.3 309.7,272.3 309.7,175 313.4,175 313.4,160.8 
	309.7,160.8 309.7,128.7 417.9,128.7 417.9,301 "/>
<polygon class="st3" points="764.1,301 764.1,291.2 775.5,291.2 775.5,272.3 838.5,272.3 838.5,175 834.8,175 834.8,160.8 
	838.5,160.8 838.5,128.7 730.3,128.7 730.3,301 "/>
<polygon class="st3" points="420.9,128.7 521.8,128.7 521.8,300.6 484.4,300.6 484.4,304 474.5,304 474.5,302.3 461.3,302.3 
	461.3,333.9 416.6,333.9 416.6,304.1 420.6,304.1 "/>
<polygon class="st3" points="726.5,128.7 625.6,128.7 625.6,300.6 662.9,300.6 662.9,304 672.8,304 672.8,302.3 686,302.3 
	686,333.9 730.7,333.9 730.7,304.1 726.8,304.1 "/>
<polygon class="st4" points="624.2,301.2 624.2,142 571.5,142 571.5,129 524,129 524,301.2 571.9,301.2 571.9,292 584.9,292 
	584.9,300.6 "/>
<text transform="matrix(6.123234e-17 -1 1 6.123234e-17 57.15 585.9379)" class="st5 st6 st7">CALZAD</text>
<text transform="matrix(6.123234e-17 -1 1 6.123234e-17 57.15 402.8871)" class="st5 st6 st7 st8">A</text>
<text transform="matrix(6.123234e-17 -1 1 6.123234e-17 57.15 373.977)" class="st5 st6 st7"> DE</text>
<text transform="matrix(6.123234e-17 -1 1 6.123234e-17 57.15 296.8979)" class="st5 st6 st7">L</text>
<text transform="matrix(6.123234e-17 -1 1 6.123234e-17 57.15 268.767)" class="st5 st6 st7"> </text>
<text transform="matrix(6.123234e-17 -1 1 6.123234e-17 57.15 256.7172)" class="st5 st6 st7 st9">V</text>
<text transform="matrix(6.123234e-17 -1 1 6.123234e-17 57.15 230.2172)" class="st5 st6 st7">ALLE</text>
<text transform="matrix(1 0 0 1 444.63 40.7775)" class="st5 st6 st7">PLAZ</text>
<text transform="matrix(1 0 0 1 560.26 40.7775)" class="st5 st6 st7 st8">A</text>
<text transform="matrix(1 0 0 1 589.17 40.7775)" class="st5 st6 st7"> DUENDES</text>
</svg>
