<?xml version="1.0" encoding="utf-8"?>
<!-- Generator: Adobe Illustrator 25.2.3, SVG Export Plug-In . SVG Version: 6.00 Build 0)  -->
<svg version="1.1" id="Capa_1" xmlns="http://www.w3.org/2000/svg" xmlns:xlink="http://www.w3.org/1999/xlink" x="0px" y="0px"
	 viewBox="0 0 1080 753.7" style="enable-background:new 0 0 1080 753.7;" xml:space="preserve">
<style type="text/css">
	.st0{fill:#010101;}
	.st1{font-family:'CenturySchoolbook-Italic';}
	.st2{font-size:72.5754px;}
	.st3{fill:#032734;}
	.st4{fill:#B0B0AF;stroke:#010101;stroke-width:0.25;stroke-miterlimit:10;}
	.st5{fill:#828383;}
	.st6{font-family:'Century';}
	.st7{font-size:42.61px;}
	.st8{letter-spacing:-2;}
	.st9{letter-spacing:-4;}
</style>
<text transform="matrix(1 0 0 1 214.8198 731.0742)" class="st0 st1 st2">Planta Niveles 2 al 4</text>
<image style="overflow:visible;enable-background:new    ;" width="3226" height="1799" xlink:href="7EAA7AB4.png"  transform="matrix(0.3005 0 0 0.3005 93.42 94.026)">
</image>
<polygon class="st3" points="123.8,98.2 123.8,104.7 111.7,104.7 111.7,203.9 112.6,203.9 112.6,205.9 270,205.9 270,158.4 
	261,158.4 261,145.1 269.2,145.1 269.2,97.6 233.7,97.6 233.7,95.4 201.6,95.4 201.6,98.4 "/>
<polygon class="st4" points="270.3,210.1 270.3,247.7 261.4,247.7 261.4,261.6 271,261.6 271,308 96.5,308 96.5,261.7 112.3,261.7 
	112.3,210.6 "/>
<polygon class="st4" points="112.6,311.6 112.6,363.3 96.8,363.3 96.8,408.4 269.7,408.4 269.7,362.9 261.3,362.9 261.3,349.5 
	270,349.5 270,311.4 "/>
<polygon class="st4" points="269.9,410.8 112.6,410.8 112.6,462.9 95.5,462.9 95.5,509.7 269.2,509.7 269.2,463.6 260.4,463.6 
	260.4,448.9 269.7,448.9 "/>
<polygon class="st3" points="111.9,513.9 111.9,614.2 123.8,614.2 123.8,621 194.9,621 194.9,626.1 270.4,626.1 270.4,574.2 
	261.5,574.2 261.5,559.7 269.7,559.7 269.7,514.4 "/>
<polygon class="st3" points="1031.7,205.5 1031.7,106.2 1020.2,106.2 1020.2,98 948.4,98 948.4,105.2 911.2,105.2 911.2,97.7 
	873.1,97.7 873.1,144.7 881.8,144.7 881.8,159.5 873.4,159.5 873.4,204.8 "/>
<polygon class="st4" points="873.1,208.9 873.1,248.1 881.6,248.1 881.6,261.6 873.2,261.6 873.2,308 1046.7,308 1046.7,261.6 
	1031.9,261.6 1031.9,209.2 "/>
<polygon class="st4" points="873.1,309.9 873.1,349.1 881.6,349.1 881.6,362.6 873.2,362.6 873.2,409 1046.7,409 1046.7,362.6 
	1031.9,362.6 1031.9,310.2 "/>
<polygon class="st4" points="873.1,411.5 873.1,450.8 881.6,450.8 881.6,464.2 873.2,464.2 873.2,510.6 1046.7,510.6 1046.7,464.2 
	1031.9,464.2 1031.9,411.8 "/>
<polygon class="st3" points="872.9,513.2 872.9,560.3 882,560.3 882,574.2 873,574.2 873,623.8 948,623.8 948,622.6 1020.4,622.6 
	1020.4,613.7 1031.8,613.7 1031.8,513.7 "/>
<polygon class="st4" points="385.2,406.2 385.2,415.9 374,415.9 374,434.4 312.1,434.4 312.1,530.1 315.7,530.1 315.7,544 
	312.1,544 312.1,575.6 418.4,575.6 418.4,406.2 "/>
<polygon class="st4" points="758.7,406.2 758.7,415.9 769.9,415.9 769.9,434.4 831.8,434.4 831.8,530.1 828.2,530.1 828.2,544 
	831.8,544 831.8,575.6 725.5,575.6 725.5,406.2 "/>
<polygon class="st4" points="421.4,575.6 520.5,575.6 520.5,406.7 483.8,406.7 483.8,403.3 474,403.3 474,405 461.1,405 
	461.1,373.9 417.1,373.9 417.1,403.2 421,403.2 "/>
<polygon class="st4" points="721.7,575.6 622.5,575.6 622.5,406.7 659.2,406.7 659.2,403.3 669,403.3 669,405 682,405 682,373.9 
	725.9,373.9 725.9,403.2 722,403.2 "/>
<polygon class="st4" points="621.2,406 621.2,562.5 569.4,562.5 569.4,575.3 522.7,575.3 522.7,406 569.8,406 569.8,415.1 
	582.5,415.1 582.5,406.7 "/>
<polygon class="st4" points="385.2,312.7 385.2,303 374,303 374,284.5 312.1,284.5 312.1,188.8 315.7,188.8 315.7,174.9 
	312.1,174.9 312.1,143.3 418.4,143.3 418.4,312.7 "/>
<polygon class="st4" points="758.7,312.7 758.7,303 769.9,303 769.9,284.5 831.8,284.5 831.8,188.8 828.2,188.8 828.2,174.9 
	831.8,174.9 831.8,143.3 725.5,143.3 725.5,312.7 "/>
<polygon class="st4" points="421.4,143.3 520.5,143.3 520.5,312.2 483.8,312.2 483.8,315.7 474,315.7 474,313.9 461.1,313.9 
	461.1,345 417.1,345 417.1,315.7 421,315.7 "/>
<polygon class="st4" points="721.7,143.3 622.5,143.3 622.5,312.2 659.2,312.2 659.2,315.7 669,315.7 669,313.9 682,313.9 682,345 
	725.9,345 725.9,315.7 722,315.7 "/>
<polygon class="st4" points="621.2,312.9 621.2,156.4 569.4,156.4 569.4,143.6 522.7,143.6 522.7,312.9 569.8,312.9 569.8,303.8 
	582.5,303.8 582.5,312.2 "/>
<text transform="matrix(6.123234e-17 -1 1 6.123234e-17 63.86 592.6445)" class="st5 st6 st7">CALZAD</text>
<text transform="matrix(6.123234e-17 -1 1 6.123234e-17 63.86 412.7441)" class="st5 st6 st7 st8">A</text>
<text transform="matrix(6.123234e-17 -1 1 6.123234e-17 63.86 384.3242)" class="st5 st6 st7"> DE</text>
<text transform="matrix(6.123234e-17 -1 1 6.123234e-17 63.86 308.5742)" class="st5 st6 st7">L</text>
<text transform="matrix(6.123234e-17 -1 1 6.123234e-17 63.86 280.9238)" class="st5 st6 st7"> </text>
<text transform="matrix(6.123234e-17 -1 1 6.123234e-17 63.86 269.084)" class="st5 st6 st7 st9">V</text>
<text transform="matrix(6.123234e-17 -1 1 6.123234e-17 63.86 243.0341)" class="st5 st6 st7">ALLE</text>
<text transform="matrix(1 0 0 1 444.69 56.8543)" class="st5 st6 st7">PLAZ</text>
<text transform="matrix(1 0 0 1 558.33 56.8543)" class="st5 st6 st7 st8">A</text>
<text transform="matrix(1 0 0 1 586.75 56.8543)" class="st5 st6 st7"> DUENDES</text>
</svg>
