<?xml version="1.0" encoding="utf-8"?>
<!-- Generator: Adobe Illustrator 25.2.3, SVG Export Plug-In . SVG Version: 6.00 Build 0)  -->
<svg version="1.1" id="Capa_1" xmlns="http://www.w3.org/2000/svg" xmlns:xlink="http://www.w3.org/1999/xlink" x="0px" y="0px"
	 viewBox="0 0 1080 723.6" style="enable-background:new 0 0 1080 723.6;" xml:space="preserve">
<style type="text/css">
	.st0{fill:#010101;}
	.st1{font-family:'CenturySchoolbook-Italic';}
	.st2{font-size:72.0476px;}
	.st3{fill:#B0B0AF;stroke:#010101;stroke-width:0.25;stroke-miterlimit:10;}
	.st4{fill:#032734;}
	.st5{fill:#828383;}
	.st6{font-family:'Century';}
	.st7{font-size:42.3px;}
	.st8{letter-spacing:-2;}
	.st9{letter-spacing:-4;}
</style>
<text transform="matrix(1 0 0 1 218.6997 710.593)" class="st0 st1 st2">Planta Niveles 2 al 6</text>
<image style="overflow:visible;enable-background:new    ;" width="3229" height="1801" xlink:href="ACD57791.png"  transform="matrix(0.2902 0 0 0.2902 98.21 78.123)">
</image>
<polygon class="st3" points="128.4,82.3 128.4,88.8 116.3,88.8 116.3,187.2 117.2,187.2 117.2,189.2 273.5,189.2 273.5,142 
	264.5,142 264.5,128.9 272.7,128.9 272.7,81.7 237.4,81.7 237.4,79.5 205.6,79.5 205.6,82.5 "/>
<polygon class="st3" points="273.8,193.4 273.8,230.7 265,230.7 265,244.5 274.4,244.5 274.4,290.6 101.3,290.6 101.3,244.6 
	116.9,244.6 116.9,193.9 "/>
<polygon class="st3" points="117.2,294.1 117.2,345.5 101.6,345.5 101.6,390.2 273.2,390.2 273.2,345.1 264.8,345.1 264.8,331.7 
	273.5,331.7 273.5,294 "/>
<polygon class="st3" points="273.4,392.6 117.2,392.6 117.2,444.4 100.3,444.4 100.3,490.8 272.7,490.8 272.7,445.1 263.9,445.1 
	263.9,430.5 273.2,430.5 "/>
<polygon class="st3" points="116.5,495 116.5,594.6 128.4,594.6 128.4,601.3 198.9,601.3 198.9,606.4 273.9,606.4 273.9,554.9 
	265.1,554.9 265.1,540.5 273.2,540.5 273.2,495.5 "/>
<polygon class="st3" points="387.9,388.1 387.9,397.7 376.7,397.7 376.7,416.1 315.3,416.1 315.3,511.1 318.8,511.1 318.8,524.9 
	315.3,524.9 315.3,556.3 420.8,556.3 420.8,388.1 "/>
<polygon class="st4" points="423.8,556.3 522.2,556.3 522.2,388.5 485.7,388.5 485.7,385.1 476,385.1 476,386.9 463.2,386.9 
	463.2,356 419.6,356 419.6,385.1 423.4,385.1 "/>
<polygon class="st4" points="721.9,556.3 623.5,556.3 623.5,388.5 659.9,388.5 659.9,385.1 669.6,385.1 669.6,386.9 682.5,386.9 
	682.5,356 726.1,356 726.1,385.1 722.2,385.1 "/>
<polygon class="st3" points="622.1,387.9 622.1,543.3 570.8,543.3 570.8,556 524.3,556 524.3,387.9 571.1,387.9 571.1,396.9 
	583.7,396.9 583.7,388.5 "/>
<polygon class="st3" points="387.9,295.3 387.9,285.7 376.7,285.7 376.7,267.3 315.3,267.3 315.3,172.2 318.8,172.2 318.8,158.5 
	315.3,158.5 315.3,127.1 420.8,127.1 420.8,295.3 "/>
<polygon class="st4" points="423.8,127.1 522.2,127.1 522.2,294.8 485.7,294.8 485.7,298.2 476,298.2 476,296.4 463.2,296.4 
	463.2,327.3 419.6,327.3 419.6,298.2 423.4,298.2 "/>
<polygon class="st4" points="721.9,127.1 623.5,127.1 623.5,294.8 659.9,294.8 659.9,298.2 669.6,298.2 669.6,296.4 682.5,296.4 
	682.5,327.3 726.1,327.3 726.1,298.2 722.2,298.2 "/>
<polygon class="st3" points="622.1,295.4 622.1,140.1 570.8,140.1 570.8,127.4 524.3,127.4 524.3,295.4 571.1,295.4 571.1,286.4 
	583.7,286.4 583.7,294.8 "/>
<polygon class="st3" points="1029.4,189.9 1029.4,91.2 1018,91.2 1018,83.1 946.8,83.1 946.8,90.3 909.8,90.3 909.8,82.9 872,82.9 
	872,129.5 880.6,129.5 880.6,144.1 872.2,144.1 872.2,189.2 "/>
<polygon class="st3" points="871.9,193.2 871.9,232.2 880.5,232.2 880.5,245.5 872.1,245.5 872.1,291.6 1044.3,291.6 1044.3,245.5 
	1029.6,245.5 1029.6,193.5 "/>
<polygon class="st3" points="871.9,293.5 871.9,332.5 880.5,332.5 880.5,345.8 872.1,345.8 872.1,391.9 1044.3,391.9 1044.3,345.8 
	1029.6,345.8 1029.6,293.8 "/>
<polygon class="st3" points="871.9,394.4 871.9,433.4 880.5,433.4 880.5,446.7 872.1,446.7 872.1,492.8 1044.3,492.8 1044.3,446.7 
	1029.6,446.7 1029.6,394.7 "/>
<polygon class="st3" points="871.8,495.3 871.8,542.1 880.8,542.1 880.8,555.9 871.9,555.9 871.9,605.1 946.3,605.1 946.3,604 
	1018.2,604 1018.2,595.1 1029.5,595.1 1029.5,495.8 "/>
<polygon class="st3" points="758.4,389.1 758.4,398.7 769.5,398.7 769.5,417.1 830.9,417.1 830.9,512.1 827.4,512.1 827.4,525.9 
	830.9,525.9 830.9,557.3 725.4,557.3 725.4,389.1 "/>
<polygon class="st3" points="758.4,296.3 758.4,286.7 769.5,286.7 769.5,268.3 830.9,268.3 830.9,173.3 827.4,173.3 827.4,159.5 
	830.9,159.5 830.9,128.1 725.4,128.1 725.4,296.3 "/>
<text transform="matrix(6.123234e-17 -1 1 6.123234e-17 68.65 572.3127)" class="st5 st6 st7">CALZAD</text>
<text transform="matrix(6.123234e-17 -1 1 6.123234e-17 68.65 393.713)" class="st5 st6 st7 st8">A</text>
<text transform="matrix(6.123234e-17 -1 1 6.123234e-17 68.65 365.5031)" class="st5 st6 st7"> DE</text>
<text transform="matrix(6.123234e-17 -1 1 6.123234e-17 68.65 290.2931)" class="st5 st6 st7">L</text>
<text transform="matrix(6.123234e-17 -1 1 6.123234e-17 68.65 262.8527)" class="st5 st6 st7"> </text>
<text transform="matrix(6.123234e-17 -1 1 6.123234e-17 68.65 251.0929)" class="st5 st6 st7 st9">V</text>
<text transform="matrix(6.123234e-17 -1 1 6.123234e-17 68.65 225.2326)" class="st5 st6 st7">ALLE</text>
<text transform="matrix(1 0 0 1 446.71 40.413)" class="st5 st6 st7">PLAZ</text>
<text transform="matrix(1 0 0 1 559.52 40.413)" class="st5 st6 st7 st8">A</text>
<text transform="matrix(1 0 0 1 587.74 40.413)" class="st5 st6 st7"> DUENDES</text>
</svg>
