<?xml version="1.0" encoding="utf-8"?>
<!-- Generator: Adobe Illustrator 25.2.3, SVG Export Plug-In . SVG Version: 6.00 Build 0)  -->
<svg version="1.1" id="Capa_1" xmlns="http://www.w3.org/2000/svg" xmlns:xlink="http://www.w3.org/1999/xlink" x="0px" y="0px"
	 viewBox="0 0 1080 730.7" style="enable-background:new 0 0 1080 730.7;" xml:space="preserve">
<style type="text/css">
	.st0{fill:#010101;}
	.st1{font-family:'CenturySchoolbook-Italic';}
	.st2{font-size:72.2448px;}
	.st3{fill:#B0B0AF;stroke:#010101;stroke-width:0.25;stroke-miterlimit:10;}
	.st4{fill:#032734;}
	.st5{fill:#828383;}
	.st6{font-family:'Century';}
	.st7{font-size:42.41px;}
	.st8{letter-spacing:-2;}
	.st9{letter-spacing:-4;}
</style>
<text transform="matrix(1 0 0 1 218.2798 712.1517)" class="st0 st1 st2">Planta Niveles 2 al 6</text>
<image style="overflow:visible;enable-background:new    ;" width="3238" height="1806" xlink:href="F2C72346.png"  transform="matrix(0.2894 0 0 0.2894 97.4549 77.9917)">
</image>
<polygon class="st3" points="127.7,82.2 127.7,88.7 115.6,88.7 115.6,187.4 116.5,187.4 116.5,189.4 273.2,189.4 273.2,142.1 
	264.2,142.1 264.2,128.9 272.5,128.9 272.5,81.6 237.1,81.6 237.1,79.4 205.1,79.4 205.1,82.3 "/>
<polygon class="st3" points="273.5,193.6 273.5,231 264.7,231 264.7,244.8 274.1,244.8 274.1,291 100.5,291 100.5,244.9 
	116.2,244.9 116.2,194 "/>
<polygon class="st3" points="116.5,294.6 116.5,346.1 100.8,346.1 100.8,390.9 272.9,390.9 272.9,345.6 264.5,345.6 264.5,332.3 
	273.2,332.3 273.2,294.4 "/>
<polygon class="st3" points="273.1,393.3 116.5,393.3 116.5,445.2 99.5,445.2 99.5,491.8 272.5,491.8 272.5,445.9 263.6,445.9 
	263.6,431.3 272.9,431.3 "/>
<polygon class="st3" points="115.8,496 115.8,595.8 127.7,595.8 127.7,602.6 198.4,602.6 198.4,607.7 273.6,607.7 273.6,556 
	264.8,556 264.8,541.6 272.9,541.6 272.9,496.4 "/>
<polygon class="st3" points="1031.4,189 1031.4,90.1 1020,90.1 1020,81.9 948.5,81.9 948.5,89.2 911.5,89.2 911.5,81.7 873.6,81.7 
	873.6,128.5 882.2,128.5 882.2,143.2 873.8,143.2 873.8,188.3 "/>
<polygon class="st3" points="873.5,192.3 873.5,231.4 882,231.4 882,244.8 873.7,244.8 873.7,291 1046.4,291 1046.4,244.8 
	1031.6,244.8 1031.6,192.7 "/>
<polygon class="st3" points="873.5,292.9 873.5,332 882,332 882,345.3 873.7,345.3 873.7,391.6 1046.4,391.6 1046.4,345.3 
	1031.6,345.3 1031.6,293.2 "/>
<polygon class="st3" points="873.5,394 873.5,433.1 882,433.1 882,446.5 873.7,446.5 873.7,492.7 1046.4,492.7 1046.4,446.5 
	1031.6,446.5 1031.6,394.4 "/>
<polygon class="st3" points="873.4,495.3 873.4,542.2 882.4,542.2 882.4,556 873.5,556 873.5,605.4 948.1,605.4 948.1,604.2 
	1020.2,604.2 1020.2,595.4 1031.5,595.4 1031.5,495.7 "/>
<polygon class="st4" points="387.9,388.8 387.9,398.4 376.7,398.4 376.7,416.8 315.1,416.8 315.1,512.1 318.7,512.1 318.7,525.9 
	315.1,525.9 315.1,557.4 420.9,557.4 420.9,388.8 "/>
<polygon class="st4" points="759.6,388.8 759.6,398.4 770.8,398.4 770.8,416.8 832.4,416.8 832.4,512.1 828.8,512.1 828.8,525.9 
	832.4,525.9 832.4,557.4 726.6,557.4 726.6,388.8 "/>
<polygon class="st3" points="423.9,557.4 522.6,557.4 522.6,389.2 486,389.2 486,385.8 476.3,385.8 476.3,387.6 463.4,387.6 
	463.4,356.6 419.7,356.6 419.7,385.8 423.6,385.8 "/>
<polygon class="st3" points="722.8,557.4 624.1,557.4 624.1,389.2 660.7,389.2 660.7,385.8 670.4,385.8 670.4,387.6 683.3,387.6 
	683.3,356.6 727,356.6 727,385.8 723.1,385.8 "/>
<polygon class="st3" points="622.8,388.6 622.8,544.4 571.3,544.4 571.3,557.1 524.7,557.1 524.7,388.6 571.6,388.6 571.6,397.6 
	584.3,397.6 584.3,389.2 "/>
<polygon class="st4" points="387.9,295.7 387.9,286.1 376.7,286.1 376.7,267.6 315.1,267.6 315.1,172.4 318.7,172.4 318.7,158.6 
	315.1,158.6 315.1,127.1 420.9,127.1 420.9,295.7 "/>
<polygon class="st4" points="759.6,295.7 759.6,286.1 770.8,286.1 770.8,267.6 832.4,267.6 832.4,172.4 828.8,172.4 828.8,158.6 
	832.4,158.6 832.4,127.1 726.6,127.1 726.6,295.7 "/>
<polygon class="st3" points="423.9,127.1 522.6,127.1 522.6,295.2 486,295.2 486,298.6 476.3,298.6 476.3,296.9 463.4,296.9 
	463.4,327.8 419.7,327.8 419.7,298.7 423.6,298.7 "/>
<polygon class="st3" points="722.8,127.1 624.1,127.1 624.1,295.2 660.7,295.2 660.7,298.6 670.4,298.6 670.4,296.9 683.3,296.9 
	683.3,327.8 727,327.8 727,298.7 723.1,298.7 "/>
<polygon class="st3" points="622.8,295.9 622.8,140.1 571.3,140.1 571.3,127.4 524.7,127.4 524.7,295.9 571.6,295.9 571.6,286.9 
	584.3,286.9 584.3,295.2 "/>
<text transform="matrix(6.123234e-17 -1 1 6.123234e-17 68.18 574.5023)" class="st5 st6 st7">CALZAD</text>
<text transform="matrix(6.123234e-17 -1 1 6.123234e-17 68.18 395.4213)" class="st5 st6 st7 st8">A</text>
<text transform="matrix(6.123234e-17 -1 1 6.123234e-17 68.18 367.1312)" class="st5 st6 st7"> DE</text>
<text transform="matrix(6.123234e-17 -1 1 6.123234e-17 68.18 291.7318)" class="st5 st6 st7">L</text>
<text transform="matrix(6.123234e-17 -1 1 6.123234e-17 68.18 264.2015)" class="st5 st6 st7"> </text>
<text transform="matrix(6.123234e-17 -1 1 6.123234e-17 68.18 252.4213)" class="st5 st6 st7 st9">V</text>
<text transform="matrix(6.123234e-17 -1 1 6.123234e-17 68.18 226.4916)" class="st5 st6 st7">ALLE</text>
<text transform="matrix(1 0 0 1 447.26 41.1617)" class="st5 st6 st7">PLAZ</text>
<text transform="matrix(1 0 0 1 560.38 41.1617)" class="st5 st6 st7 st8">A</text>
<text transform="matrix(1 0 0 1 588.67 41.1617)" class="st5 st6 st7"> DUENDES</text>
</svg>
